<?xml version="1.0" encoding="iso-8859-1"?>
<!-- Generator: Adobe Illustrator 16.0.0, SVG Export Plug-In . SVG Version: 6.00 Build 0)  -->
<!DOCTYPE svg PUBLIC "-//W3C//DTD SVG 1.1//EN" "http://www.w3.org/Graphics/SVG/1.1/DTD/svg11.dtd">
<svg version="1.1" id="Capa_1" xmlns="http://www.w3.org/2000/svg" xmlns:xlink="http://www.w3.org/1999/xlink" x="0px" y="0px"
	 width="493.415px" height="493.415px" viewBox="0 0 493.415 493.415" style="enable-background:new 0 0 493.415 493.415;"
	 xml:space="preserve">
<g>
	<g>
		<path d="M246.708,493.415c136.256,0,246.703-110.456,246.703-246.712C493.411,110.457,382.963,0,246.708,0
			S0.004,110.457,0.004,246.703C0.004,382.959,110.452,493.415,246.708,493.415z M291.68,122.878
			c12.422,0,22.491,10.069,22.491,22.491s-10.069,22.491-22.491,22.491s-22.491-10.069-22.491-22.491
			C269.199,132.938,279.258,122.878,291.68,122.878z M269.199,214.19c12.422,0,22.491,10.069,22.491,22.491
			s-10.069,22.491-22.491,22.491c-12.422-0.01-22.491-10.069-22.491-22.491S256.777,214.19,269.199,214.19z"/>
	</g>
</g>
<g>
</g>
<g>
</g>
<g>
</g>
<g>
</g>
<g>
</g>
<g>
</g>
<g>
</g>
<g>
</g>
<g>
</g>
<g>
</g>
<g>
</g>
<g>
</g>
<g>
</g>
<g>
</g>
<g>
</g>
</svg>
